<svg xmlns="http://www.w3.org/2000/svg" viewBox="0 0 64 64" fill="none">
  <rect width="64" height="64" rx="12" fill="#F4F7F6"/>
  <rect x="10" y="10" width="18" height="18" rx="3" fill="#0F172A"/>
  <rect x="14" y="14" width="10" height="10" rx="2" fill="#F4F7F6"/>
  <rect x="18" y="18" width="2" height="2" rx="1" fill="#0F172A"/>
  <rect x="36" y="10" width="18" height="18" rx="3" fill="#0F172A"/>
  <rect x="40" y="14" width="10" height="10" rx="2" fill="#F4F7F6"/>
  <rect x="44" y="18" width="2" height="2" rx="1" fill="#0F172A"/>
  <rect x="10" y="36" width="18" height="18" rx="3" fill="#0F172A"/>
  <rect x="14" y="40" width="10" height="10" rx="2" fill="#F4F7F6"/>
  <rect x="18" y="44" width="2" height="2" rx="1" fill="#0F172A"/>
  <rect x="36" y="36" width="4" height="4" rx="1.2" fill="#187466"/>
  <rect x="42" y="36" width="4" height="4" rx="1.2" fill="#0F172A"/>
  <rect x="48" y="36" width="6" height="6" rx="1.5" fill="#187466"/>
  <rect x="36" y="42" width="10" height="4" rx="1.2" fill="#0F172A"/>
  <rect x="48" y="44" width="6" height="10" rx="1.5" fill="#0F172A"/>
  <rect x="36" y="48" width="4" height="6" rx="1.2" fill="#187466"/>
  <rect x="42" y="48" width="4" height="4" rx="1.2" fill="#187466"/>
</svg>
